<?xml version="1.0" encoding="UTF-8"?>
<svg width="700pt" height="700pt" version="1.1" viewBox="0 0 700 700" xmlns="http://www.w3.org/2000/svg" xmlns:xlink="http://www.w3.org/1999/xlink">
 <defs>
  <symbol id="aa" overflow="visible">
   <path d="m17.203-1.0312c-0.88672 0.46094-1.8086 0.80469-2.7656 1.0312-0.96094 0.23828-1.9648 0.35938-3.0156 0.35938-3.1172 0-5.5859-0.86719-7.4062-2.6094-1.8242-1.7383-2.7344-4.1016-2.7344-7.0938 0-2.9883 0.91016-5.3516 2.7344-7.0938 1.8203-1.75 4.2891-2.625 7.4062-2.625 1.0508 0 2.0547 0.12109 3.0156 0.35938 0.95703 0.23047 1.8789 0.57422 2.7656 1.0312v3.875c-0.89844-0.61328-1.7812-1.0625-2.6562-1.3438-0.86719-0.28125-1.7773-0.42188-2.7344-0.42188-1.7188 0-3.0742 0.55469-4.0625 1.6562-0.99219 1.1055-1.4844 2.625-1.4844 4.5625 0 1.9297 0.49219 3.4453 1.4844 4.5469 0.98828 1.1055 2.3438 1.6562 4.0625 1.6562 0.95703 0 1.8672-0.14062 2.7344-0.42188 0.875-0.28125 1.7578-0.72656 2.6562-1.3438z"/>
  </symbol>
  <symbol id="c" overflow="visible">
   <path d="m12.594-10.219c-0.39844-0.1875-0.78906-0.32031-1.1719-0.40625-0.38672-0.09375-0.77734-0.14062-1.1719-0.14062-1.1562 0-2.0469 0.37109-2.6719 1.1094-0.625 0.74219-0.9375 1.8047-0.9375 3.1875v6.4688h-4.4844v-14.047h4.4844v2.3125c0.58203-0.92578 1.25-1.5977 2-2.0156 0.75-0.42578 1.6445-0.64062 2.6875-0.64062 0.14453 0 0.30469 0.011719 0.48438 0.03125 0.17578 0.011719 0.42969 0.039063 0.76562 0.078125z"/>
  </symbol>
  <symbol id="a" overflow="visible">
   <path d="m16.188-7.0625v1.2812h-10.5c0.10156 1.0547 0.47656 1.8438 1.125 2.375 0.65625 0.52344 1.5703 0.78125 2.75 0.78125 0.9375 0 1.8984-0.14062 2.8906-0.42188 1-0.28125 2.0195-0.70312 3.0625-1.2656v3.4531c-1.0625 0.40625-2.125 0.71094-3.1875 0.90625-1.0625 0.20703-2.125 0.3125-3.1875 0.3125-2.543 0-4.5156-0.64453-5.9219-1.9375-1.4062-1.2891-2.1094-3.1016-2.1094-5.4375 0-2.2891 0.6875-4.0938 2.0625-5.4062 1.3828-1.3125 3.2891-1.9688 5.7188-1.9688 2.207 0 3.9727 0.66797 5.2969 2 1.332 1.3359 2 3.1094 2 5.3281zm-4.625-1.4844c0-0.85156-0.25-1.5391-0.75-2.0625-0.49219-0.53125-1.1367-0.79688-1.9375-0.79688-0.875 0-1.5859 0.24609-2.125 0.73438-0.54297 0.49219-0.88281 1.1992-1.0156 2.125z"/>
  </symbol>
  <symbol id="f" overflow="visible">
   <path d="m8.4531-6.3281c-0.9375 0-1.6484 0.16406-2.125 0.48438-0.46875 0.3125-0.70312 0.78125-0.70312 1.4062 0 0.5625 0.1875 1.0078 0.5625 1.3281 0.38281 0.32422 0.91406 0.48438 1.5938 0.48438 0.85156 0 1.5664-0.30078 2.1406-0.90625 0.57031-0.60156 0.85938-1.3633 0.85938-2.2812v-0.51562zm6.8594-1.6875v8.0156h-4.5312v-2.0781c-0.59375 0.85547-1.2734 1.4766-2.0312 1.8594-0.75 0.38281-1.6641 0.57812-2.7344 0.57812-1.4609 0-2.6406-0.42188-3.5469-1.2656-0.90625-0.85156-1.3594-1.957-1.3594-3.3125 0-1.6445 0.5625-2.8516 1.6875-3.625 1.1328-0.76953 2.9141-1.1562 5.3438-1.1562h2.6406v-0.34375c0-0.70703-0.28125-1.2266-0.84375-1.5625-0.55469-0.33203-1.4219-0.5-2.6094-0.5-0.96875 0-1.8672 0.10156-2.6875 0.29688-0.82422 0.1875-1.5938 0.47656-2.3125 0.85938v-3.4219c0.96875-0.22656 1.9375-0.40625 2.9062-0.53125s1.9375-0.1875 2.9062-0.1875c2.5312 0 4.3594 0.5 5.4844 1.5s1.6875 2.625 1.6875 4.875z"/>
  </symbol>
  <symbol id="b" overflow="visible">
   <path d="m7.0625-18.031v3.9844h4.625v3.2031h-4.625v5.9688c0 0.64844 0.12891 1.0859 0.39062 1.3125 0.25781 0.23047 0.77344 0.34375 1.5469 0.34375h2.2969v3.2188h-3.8438c-1.7734 0-3.0273-0.36719-3.7656-1.1094-0.74219-0.73828-1.1094-1.9922-1.1094-3.7656v-5.9688h-2.2344v-3.2031h2.2344v-3.9844z"/>
  </symbol>
  <symbol id="l" overflow="visible">
   <path d="m11.719-11.984v-7.5312h4.5156v19.516h-4.5156v-2.0312c-0.625 0.82422-1.3125 1.4297-2.0625 1.8125-0.74219 0.38281-1.5938 0.57812-2.5625 0.57812-1.7422 0-3.168-0.6875-4.2812-2.0625-1.1055-1.375-1.6562-3.1445-1.6562-5.3125 0-2.1641 0.55078-3.9375 1.6562-5.3125 1.1133-1.375 2.5391-2.0625 4.2812-2.0625 0.96875 0 1.8203 0.19922 2.5625 0.59375 0.75 0.38672 1.4375 0.99219 2.0625 1.8125zm-2.9688 9.0938c0.96875 0 1.7031-0.34766 2.2031-1.0469 0.50781-0.70703 0.76562-1.7344 0.76562-3.0781 0-1.332-0.25781-2.3477-0.76562-3.0469-0.5-0.70703-1.2344-1.0625-2.2031-1.0625-0.94922 0-1.6797 0.35547-2.1875 1.0625-0.5 0.69922-0.75 1.7148-0.75 3.0469 0 1.3438 0.25 2.3711 0.75 3.0781 0.50781 0.69922 1.2383 1.0469 2.1875 1.0469z"/>
  </symbol>
  <symbol id="k" overflow="visible">
   <path d="m9.6406-2.8906c0.95703 0 1.6875-0.34766 2.1875-1.0469 0.50781-0.70703 0.76562-1.7344 0.76562-3.0781 0-1.332-0.25781-2.3477-0.76562-3.0469-0.5-0.70703-1.2305-1.0625-2.1875-1.0625-0.96875 0-1.7148 0.35547-2.2344 1.0625-0.51172 0.71094-0.76562 1.7266-0.76562 3.0469 0 1.3359 0.25391 2.3555 0.76562 3.0625 0.51953 0.71094 1.2656 1.0625 2.2344 1.0625zm-3-9.0938c0.625-0.82031 1.3125-1.4258 2.0625-1.8125 0.75-0.39453 1.6133-0.59375 2.5938-0.59375 1.7266 0 3.1484 0.6875 4.2656 2.0625 1.1133 1.375 1.6719 3.1484 1.6719 5.3125 0 2.168-0.55859 3.9375-1.6719 5.3125-1.1172 1.375-2.5391 2.0625-4.2656 2.0625-0.98047 0-1.8438-0.19531-2.5938-0.57812s-1.4375-0.98828-2.0625-1.8125v2.0312h-4.4844v-19.516h4.4844z"/>
  </symbol>
  <symbol id="j" overflow="visible">
   <path d="m0.3125-14.047h4.4844l3.7812 9.5312 3.2188-9.5312h4.4844l-5.9062 15.375c-0.59375 1.5625-1.2891 2.6562-2.0781 3.2812-0.79297 0.625-1.8359 0.9375-3.125 0.9375h-2.5938v-2.9531h1.3906c0.76953 0 1.3281-0.12109 1.6719-0.35938 0.34375-0.24219 0.61328-0.67969 0.8125-1.3125l0.125-0.375z"/>
  </symbol>
  <symbol id="i" overflow="visible">
   <path d="m2.3594-18.719h4.8281v18.719h-4.8281z"/>
  </symbol>
  <symbol id="z" overflow="visible">
   <path d="m10.906-15.562c-1.4688 0-2.6094 0.54688-3.4219 1.6406-0.8125 1.0859-1.2188 2.6094-1.2188 4.5781s0.40625 3.4961 1.2188 4.5781c0.8125 1.0859 1.9531 1.625 3.4219 1.625 1.4766 0 2.625-0.53906 3.4375-1.625 0.8125-1.082 1.2188-2.6094 1.2188-4.5781s-0.40625-3.4922-1.2188-4.5781c-0.8125-1.0938-1.9609-1.6406-3.4375-1.6406zm0-3.5c3.0078 0 5.3672 0.86719 7.0781 2.5938 1.707 1.7188 2.5625 4.0938 2.5625 7.125s-0.85547 5.4062-2.5625 7.125c-1.7109 1.7188-4.0703 2.5781-7.0781 2.5781-3 0-5.3555-0.85938-7.0625-2.5781-1.7109-1.7188-2.5625-4.0938-2.5625-7.125s0.85156-5.4062 2.5625-7.125c1.707-1.7266 4.0625-2.5938 7.0625-2.5938z"/>
  </symbol>
  <symbol id="y" overflow="visible">
   <path d="m2.3594-18.719h4.8281v7.125h7.125v-7.125h4.8281v18.719h-4.8281v-7.9375h-7.125v7.9375h-4.8281z"/>
  </symbol>
  <symbol id="x" overflow="visible">
   <path d="m2.3594-18.719h4.8281v6.8281l6.9531-6.8281h5.6094l-9.0156 8.8594 9.9531 9.8594h-6.0469l-7.4531-7.375v7.375h-4.8281z"/>
  </symbol>
  <symbol id="h" overflow="visible">
   <path d="m7.1875-15.078v11.422h1.7344c1.9688 0 3.4727-0.48438 4.5156-1.4531 1.0391-0.97656 1.5625-2.3984 1.5625-4.2656 0-1.8633-0.52344-3.2812-1.5625-4.25-1.0312-0.96875-2.5391-1.4531-4.5156-1.4531zm-4.8281-3.6406h5.0938c2.8438 0 4.957 0.20312 6.3438 0.60938 1.3945 0.39844 2.5938 1.0781 3.5938 2.0469 0.875 0.85547 1.5234 1.8359 1.9531 2.9375 0.42578 1.0938 0.64062 2.3438 0.64062 3.75s-0.21484 2.668-0.64062 3.7812c-0.42969 1.1055-1.0781 2.0781-1.9531 2.9219-1.0117 0.96875-2.2188 1.6562-3.625 2.0625-1.3984 0.40625-3.5 0.60938-6.3125 0.60938h-5.0938z"/>
  </symbol>
  <symbol id="w" overflow="visible">
   <path d="m13.125-13.609v3.4062c-0.96094-0.39453-1.8867-0.69141-2.7812-0.89062-0.89844-0.20703-1.7422-0.3125-2.5312-0.3125-0.85547 0-1.4922 0.10938-1.9062 0.32812-0.40625 0.21094-0.60938 0.53906-0.60938 0.98438 0 0.35547 0.15625 0.63281 0.46875 0.82812 0.3125 0.1875 0.875 0.32812 1.6875 0.42188l0.78125 0.10938c2.3008 0.29297 3.8477 0.77734 4.6406 1.4531 0.80078 0.66797 1.2031 1.7148 1.2031 3.1406 0 1.5-0.55469 2.625-1.6562 3.375-1.1055 0.75-2.7578 1.125-4.9531 1.125-0.92969 0-1.8867-0.074219-2.875-0.21875-0.99219-0.14453-2.0078-0.36328-3.0469-0.65625v-3.4062c0.89453 0.42969 1.8125 0.75 2.75 0.96875s1.8906 0.32812 2.8594 0.32812c0.88281 0 1.5469-0.11719 1.9844-0.35938 0.44531-0.23828 0.67188-0.59766 0.67188-1.0781 0-0.40625-0.15625-0.70312-0.46875-0.89062-0.30469-0.19531-0.90625-0.35156-1.8125-0.46875l-0.79688-0.09375c-2-0.25-3.4023-0.71094-4.2031-1.3906-0.80469-0.67578-1.2031-1.707-1.2031-3.0938 0-1.4883 0.50781-2.5938 1.5312-3.3125 1.0195-0.71875 2.582-1.0781 4.6875-1.0781 0.83203 0 1.7031 0.0625 2.6094 0.1875 0.91406 0.125 1.9062 0.32422 2.9688 0.59375z"/>
  </symbol>
  <symbol id="v" overflow="visible">
   <path d="m2.1562-14.047h4.4844v14.047h-4.4844zm0-5.4688h4.4844v3.6562h-4.4844z"/>
  </symbol>
  <symbol id="u" overflow="visible">
   <path d="m11.719-2.3906c-0.625 0.82422-1.3125 1.4297-2.0625 1.8125-0.74219 0.38672-1.5938 0.57812-2.5625 0.57812-1.7188 0-3.1406-0.67188-4.2656-2.0156-1.1172-1.3516-1.6719-3.0781-1.6719-5.1719s0.55469-3.8125 1.6719-5.1562c1.125-1.3438 2.5469-2.0156 4.2656-2.0156 0.96875 0 1.8203 0.19531 2.5625 0.57812 0.75 0.38672 1.4375 0.99219 2.0625 1.8125v-2.0781h4.5156v12.625c0 2.2578-0.71484 3.9844-2.1406 5.1719-1.4297 1.1953-3.4961 1.7969-6.2031 1.7969-0.875 0-1.7266-0.070313-2.5469-0.20312-0.82422-0.13672-1.6484-0.33984-2.4688-0.60938v-3.5c0.78125 0.44531 1.5469 0.78125 2.2969 1 0.75781 0.22656 1.5195 0.34375 2.2812 0.34375 1.4688 0 2.5469-0.32422 3.2344-0.96875 0.6875-0.64844 1.0312-1.6562 1.0312-3.0312zm-2.9688-8.7344c-0.92969 0-1.6523 0.34375-2.1719 1.0312-0.51172 0.6875-0.76562 1.6562-0.76562 2.9062 0 1.293 0.25 2.2734 0.75 2.9375 0.5 0.65625 1.2266 0.98438 2.1875 0.98438 0.9375 0 1.6641-0.33594 2.1875-1.0156 0.51953-0.6875 0.78125-1.6562 0.78125-2.9062s-0.26172-2.2188-0.78125-2.9062c-0.52344-0.6875-1.25-1.0312-2.1875-1.0312z"/>
  </symbol>
  <symbol id="e" overflow="visible">
   <path d="m16.281-8.5469v8.5469h-4.5156v-6.5469c0-1.207-0.027344-2.0391-0.078125-2.5-0.054688-0.46875-0.14844-0.8125-0.28125-1.0312-0.17969-0.28906-0.41797-0.51562-0.71875-0.67188-0.30469-0.16406-0.64844-0.25-1.0312-0.25-0.9375 0-1.6797 0.36719-2.2188 1.0938-0.53125 0.71875-0.79688 1.7188-0.79688 3v6.9062h-4.4844v-14.047h4.4844v2.0625c0.67578-0.82031 1.3945-1.4258 2.1562-1.8125 0.76953-0.39453 1.6133-0.59375 2.5312-0.59375 1.625 0 2.8516 0.5 3.6875 1.5 0.84375 0.99219 1.2656 2.4375 1.2656 4.3438z"/>
  </symbol>
  <symbol id="t" overflow="visible">
   <path d="m6.6406-2.0312v7.375h-4.4844v-19.391h4.4844v2.0625c0.625-0.82031 1.3125-1.4258 2.0625-1.8125 0.75-0.39453 1.6133-0.59375 2.5938-0.59375 1.7266 0 3.1484 0.6875 4.2656 2.0625 1.1133 1.375 1.6719 3.1484 1.6719 5.3125 0 2.168-0.55859 3.9375-1.6719 5.3125-1.1172 1.375-2.5391 2.0625-4.2656 2.0625-0.98047 0-1.8438-0.19531-2.5938-0.57812s-1.4375-0.98828-2.0625-1.8125zm3-9.0938c-0.96875 0-1.7148 0.35547-2.2344 1.0625-0.51172 0.71094-0.76562 1.7266-0.76562 3.0469 0 1.3359 0.25391 2.3555 0.76562 3.0625 0.51953 0.71094 1.2656 1.0625 2.2344 1.0625 0.95703 0 1.6875-0.34766 2.1875-1.0469 0.50781-0.70703 0.76562-1.7344 0.76562-3.0781 0-1.332-0.25781-2.3477-0.76562-3.0469-0.5-0.70703-1.2305-1.0625-2.1875-1.0625z"/>
  </symbol>
  <symbol id="g" overflow="visible">
   <path d="m15.172-11.719c0.57031-0.86328 1.25-1.5234 2.0312-1.9844 0.78125-0.45703 1.6406-0.6875 2.5781-0.6875 1.6133 0 2.8438 0.5 3.6875 1.5 0.84375 0.99219 1.2656 2.4375 1.2656 4.3438v8.5469h-4.5156v-7.3281c0.007812-0.10156 0.015625-0.21094 0.015625-0.32812 0.007813-0.125 0.015625-0.29688 0.015625-0.51562 0-0.98828-0.15234-1.707-0.45312-2.1562-0.29297-0.44531-0.76172-0.67188-1.4062-0.67188-0.85547 0-1.5156 0.35547-1.9844 1.0625-0.46094 0.69922-0.69922 1.7109-0.71875 3.0312v6.9062h-4.5156v-7.3281c0-1.5508-0.13672-2.5508-0.40625-3-0.26172-0.44531-0.73438-0.67188-1.4219-0.67188-0.86719 0-1.5312 0.35547-2 1.0625-0.46875 0.71094-0.70312 1.7188-0.70312 3.0312v6.9062h-4.5156v-14.047h4.5156v2.0625c0.55078-0.80078 1.1875-1.3984 1.9062-1.7969 0.71875-0.40625 1.5039-0.60938 2.3594-0.60938 0.96875 0 1.8203 0.23438 2.5625 0.70312 0.75 0.46875 1.3164 1.125 1.7031 1.9688z"/>
  </symbol>
  <symbol id="s" overflow="visible">
   <path d="m11.406-19.516v2.9531h-2.4844c-0.63672 0-1.0781 0.11719-1.3281 0.34375-0.25 0.23047-0.375 0.625-0.375 1.1875v0.98438h3.8281v3.2031h-3.8281v10.844h-4.5v-10.844h-2.2344v-3.2031h2.2344v-0.98438c0-1.5312 0.42578-2.6602 1.2812-3.3906 0.85156-0.72656 2.1758-1.0938 3.9688-1.0938z"/>
  </symbol>
  <symbol id="d" overflow="visible">
   <path d="m8.8438-11.172c-1 0-1.7617 0.35938-2.2812 1.0781-0.52344 0.71094-0.78125 1.7344-0.78125 3.0781 0 1.3555 0.25781 2.3906 0.78125 3.1094 0.51953 0.71094 1.2812 1.0625 2.2812 1.0625 0.97656 0 1.7227-0.35156 2.2344-1.0625 0.51953-0.71875 0.78125-1.7539 0.78125-3.1094 0-1.3438-0.26172-2.3672-0.78125-3.0781-0.51172-0.71875-1.2578-1.0781-2.2344-1.0781zm0-3.2188c2.4141 0 4.3008 0.65625 5.6562 1.9688 1.3633 1.3047 2.0469 3.1055 2.0469 5.4062 0 2.3125-0.68359 4.1211-2.0469 5.4219-1.3555 1.3047-3.2422 1.9531-5.6562 1.9531-2.4297 0-4.3242-0.64844-5.6875-1.9531-1.3672-1.3008-2.0469-3.1094-2.0469-5.4219 0-2.3008 0.67969-4.1016 2.0469-5.4062 1.3633-1.3125 3.2578-1.9688 5.6875-1.9688z"/>
  </symbol>
  <symbol id="r" overflow="visible">
   <path d="m16.281-8.5469v8.5469h-4.5156v-6.5156c0-1.2266-0.027344-2.0703-0.078125-2.5312-0.054688-0.46875-0.14844-0.8125-0.28125-1.0312-0.17969-0.28906-0.41797-0.51562-0.71875-0.67188-0.30469-0.16406-0.64844-0.25-1.0312-0.25-0.9375 0-1.6797 0.36719-2.2188 1.0938-0.53125 0.71875-0.79688 1.7188-0.79688 3v6.9062h-4.4844v-19.516h4.4844v7.5312c0.67578-0.82031 1.3945-1.4258 2.1562-1.8125 0.76953-0.39453 1.6133-0.59375 2.5312-0.59375 1.625 0 2.8516 0.5 3.6875 1.5 0.84375 0.99219 1.2656 2.4375 1.2656 4.3438z"/>
  </symbol>
  <symbol id="q" overflow="visible">
   <path d="m2.3594-18.719h5.3906l6.8125 12.844v-12.844h4.5781v18.719h-5.3906l-6.8125-12.844v12.844h-4.5781z"/>
  </symbol>
  <symbol id="p" overflow="visible">
   <path d="m2-5.4688v-8.5781h4.5156v1.4062c0 0.76172-0.007813 1.7188-0.015625 2.875v2.2969c0 1.125 0.023438 1.9375 0.078125 2.4375 0.0625 0.49219 0.16406 0.85156 0.3125 1.0781 0.17578 0.29297 0.41016 0.52344 0.70312 0.6875 0.30078 0.15625 0.64453 0.23438 1.0312 0.23438 0.9375 0 1.6719-0.35938 2.2031-1.0781 0.53906-0.71875 0.8125-1.7188 0.8125-3v-6.9375h4.4844v14.047h-4.4844v-2.0312c-0.67969 0.82422-1.3984 1.4297-2.1562 1.8125-0.75 0.38281-1.5859 0.57812-2.5 0.57812-1.625 0-2.8672-0.49219-3.7188-1.4844-0.84375-1-1.2656-2.4453-1.2656-4.3438z"/>
  </symbol>
  <symbol id="o" overflow="visible">
   <path d="m2.3594-18.719h8.0156c2.3828 0 4.2109 0.53125 5.4844 1.5938 1.2695 1.0547 1.9062 2.5547 1.9062 4.5 0 1.9688-0.63672 3.4844-1.9062 4.5469-1.2734 1.0547-3.1016 1.5781-5.4844 1.5781h-3.1875v6.5h-4.8281zm4.8281 3.4844v5.2344h2.6719c0.9375 0 1.6602-0.22266 2.1719-0.67188 0.50781-0.45703 0.76562-1.1094 0.76562-1.9531 0-0.83203-0.25781-1.4727-0.76562-1.9219-0.51172-0.45703-1.2344-0.6875-2.1719-0.6875z"/>
  </symbol>
  <symbol id="n" overflow="visible">
   <path d="m2.1562-14.047h4.4844v13.797c0 1.8828-0.45312 3.3203-1.3594 4.3125-0.89844 0.98828-2.2031 1.4844-3.9219 1.4844h-2.2188v-2.9531h0.78125c0.85156 0 1.4375-0.19531 1.75-0.57812 0.32031-0.38672 0.48438-1.1406 0.48438-2.2656zm0-5.4688h4.4844v3.6562h-4.4844z"/>
  </symbol>
  <symbol id="m" overflow="visible">
   <path d="m13.516-13.609v3.6562c-0.61719-0.41406-1.2305-0.72266-1.8438-0.92188-0.61719-0.19531-1.25-0.29688-1.9062-0.29688-1.2617 0-2.2422 0.36719-2.9375 1.0938-0.69922 0.73047-1.0469 1.75-1.0469 3.0625s0.34766 2.3398 1.0469 3.0781c0.69531 0.73047 1.6758 1.0938 2.9375 1.0938 0.69531 0 1.3594-0.10156 1.9844-0.3125 0.63281-0.20703 1.2227-0.51953 1.7656-0.9375v3.6875c-0.71094 0.25-1.4297 0.4375-2.1562 0.5625-0.71875 0.13281-1.4453 0.20312-2.1719 0.20312-2.5312 0-4.5117-0.64453-5.9375-1.9375-1.4297-1.3008-2.1406-3.1133-2.1406-5.4375 0-2.3125 0.71094-4.1172 2.1406-5.4219 1.4258-1.3008 3.4062-1.9531 5.9375-1.9531 0.73828 0 1.4609 0.070313 2.1719 0.20312 0.71875 0.125 1.4375 0.32031 2.1562 0.57812z"/>
  </symbol>
 </defs>
 <g>
  <path d="m227.66 163.82c-1.9922-5.3125 0.69922-11.234 6.0117-13.227s11.238 0.69922 13.23 6.0117c13.93 37.145 45.816 80.844 95.73 130.76 49.914 49.914 93.613 81.801 130.76 95.73 5.3125 1.9922 8.0039 7.918 6.0117 13.23s-7.9141 8.0039-13.227 6.0117c-40.355-15.133-86.27-48.637-138.07-100.44-51.805-51.805-85.309-97.719-100.44-138.07z"/>
  <path d="m103.01 526.99 357.57-141.68c1.0312-22.988-28.273-66.398-88.883-127.01s-104.02-89.914-127.01-88.883zm131.57-376.69c31.828-8.6797 81.051 22.871 151.65 93.469 70.598 70.598 102.15 119.82 93.469 151.65-0.85156 3.1211-3.1211 5.6602-6.1289 6.8516l-385.08 152.58c-8.3672 3.3164-16.652-4.9688-13.336-13.336l152.58-385.08c1.1914-3.0078 3.7305-5.2773 6.8516-6.1289z"/>
  <path d="m579.21 109.87c5.625-0.74219 10.789 3.2148 11.535 8.8398 0.74219 5.6289-3.2148 10.793-8.8438 11.535-32.52 4.2969-63.234 16.191-90.012 34.559-4.6797 3.2109-11.074 2.0195-14.285-2.6602-3.2109-4.6797-2.0195-11.078 2.6602-14.285 29.426-20.188 63.199-33.262 98.945-37.988z"/>
  <path d="m502.15 274.28c5.625-0.74609 10.789 3.2148 11.531 8.8398 0.74219 5.625-3.2148 10.789-8.8398 11.531-32.52 4.3008-63.234 16.191-90.012 34.559-4.6797 3.2109-11.074 2.0195-14.285-2.6602s-2.0195-11.074 2.6602-14.285c29.426-20.188 63.195-33.262 98.945-37.984z"/>
  <path d="m318.66 212.31c-3.6406 4.3477-10.125 4.9219-14.473 1.2773-4.3516-3.6445-4.9258-10.125-1.2812-14.473 43.441-51.867 67.641-117.19 67.641-186.27 0-5.6758 4.6016-10.273 10.273-10.273 5.6758 0 10.277 4.5977 10.277 10.273 0 73.949-25.926 143.94-72.438 199.47z"/>
  <path d="m162.89 523.86-18.629-8.6758c6.8906-14.793 10.508-30.965 10.508-47.664 0-23.672-7.2812-46.223-20.645-65.137l16.785-11.859c15.793 22.355 24.41 49.043 24.41 76.996 0 19.715-4.2812 38.844-12.43 56.34z"/>
  <path d="m224.36 498.45-18.594-8.75c10.352-22.012 15.793-46.102 15.793-70.988 0-43.238-16.488-83.859-45.59-114.66l14.938-14.113c32.672 34.574 51.203 80.23 51.203 128.77 0 27.926-6.1133 55.004-17.75 79.738z"/>
  <path d="m270.67 481.82-16.633-12.07c26.832-36.977 41.508-81.418 41.508-128.1 0-41.113-11.371-80.523-32.527-114.71l17.477-10.812c23.152 37.418 35.598 80.566 35.598 125.53 0 51.055-16.062 99.715-45.422 140.17z"/>
  <path d="m361.14 445.82-17.52-10.742c17.727-28.91 28.52-61.586 31.332-95.871l20.48 1.6797c-3.0781 37.516-14.891 73.297-34.293 104.93z"/>
  <path d="m258.91 285.68c2.5312 5.0781 0.46484 11.246-4.6133 13.777s-11.25 0.46484-13.777-4.6172c-9.3633-18.789-21.391-36.148-35.789-51.535-3.8789-4.1445-3.6602-10.648 0.48047-14.523 4.1445-3.8789 10.648-3.6602 14.523 0.48047 15.766 16.848 28.934 35.852 39.176 56.418z"/>
  <path d="m272.94 326.24c0 5.6758-4.6016 10.277-10.277 10.277-5.6758 0-10.273-4.6016-10.273-10.277s4.5977-10.273 10.273-10.273c5.6758 0 10.277 4.5977 10.277 10.273" fill-rule="evenodd"/>
  <path d="m280.64 107.89c-18.441 0-33.395-14.953-33.395-33.395 0-18.445 14.953-33.395 33.395-33.395 18.445 0 33.395 14.949 33.395 33.395 0 18.441-14.949 33.395-33.395 33.395zm0-20.551c7.0938 0 12.844-5.75 12.844-12.844s-5.75-12.844-12.844-12.844-12.844 5.75-12.844 12.844 5.75 12.844 12.844 12.844z"/>
  <path d="m491.29 66.789c-18.445 0-33.395-14.953-33.395-33.395 0-18.441 14.949-33.395 33.395-33.395 18.441 0 33.395 14.953 33.395 33.395 0 18.441-14.953 33.395-33.395 33.395zm0-20.551c7.0938 0 12.844-5.75 12.844-12.844s-5.75-12.844-12.844-12.844-12.844 5.75-12.844 12.844 5.75 12.844 12.844 12.844z"/>
  <path d="m563.21 256.88c-18.441 0-33.395-14.949-33.395-33.395 0-18.441 14.953-33.395 33.395-33.395 18.441 0 33.395 14.953 33.395 33.395 0 18.445-14.953 33.395-33.395 33.395zm0-20.547c7.0938 0 12.844-5.7539 12.844-12.848 0-7.0898-5.75-12.844-12.844-12.844s-12.844 5.7539-12.844 12.844c0 7.0938 5.75 12.848 12.844 12.848z"/>
  <path d="m411.65 169.54c0-5.6758 4.5977-10.277 10.273-10.277s10.277 4.6016 10.277 10.277v41.098c0 5.6758-4.6016 10.277-10.277 10.277s-10.273-4.6016-10.273-10.277z"/>
  <path d="m401.38 200.37c-5.6719 0-10.273-4.6016-10.273-10.277 0-5.6719 4.6016-10.273 10.273-10.273h41.102c5.6758 0 10.277 4.6016 10.277 10.273 0 5.6758-4.6016 10.277-10.277 10.277z"/>
  <path d="m524.68 452.11c0-5.6758 4.5977-10.273 10.273-10.273s10.277 4.5977 10.277 10.273v41.102c0 5.6758-4.6016 10.273-10.277 10.273s-10.273-4.5977-10.273-10.273z"/>
  <path d="m514.4 482.94c-5.6719 0-10.273-4.6016-10.273-10.277 0-5.6758 4.6016-10.273 10.273-10.273h41.102c5.6758 0 10.277 4.5977 10.277 10.273 0 5.6758-4.6016 10.277-10.277 10.277z"/>
  <path d="m154.77 61.652c0-5.6758 4.6016-10.277 10.277-10.277s10.273 4.6016 10.273 10.277v41.102c0 5.6719-4.5977 10.273-10.273 10.273s-10.277-4.6016-10.277-10.273z"/>
  <path d="m144.5 92.477c-5.6758 0-10.277-4.6016-10.277-10.273 0-5.6758 4.6016-10.277 10.277-10.277h41.102c5.6719 0 10.273 4.6016 10.273 10.277 0 5.6719-4.6016 10.273-10.273 10.273z"/>
  <path d="m555.5 328.81c0 5.6719-4.6016 10.273-10.273 10.273-5.6758 0-10.277-4.6016-10.277-10.273 0-5.6758 4.6016-10.277 10.277-10.277 5.6719 0 10.273 4.6016 10.273 10.277" fill-rule="evenodd"/>
  <path d="m591.47 411.01c0 5.6758-4.6016 10.277-10.277 10.277-5.6719 0-10.273-4.6016-10.273-10.277 0-5.6719 4.6016-10.273 10.273-10.273 5.6758 0 10.277 4.6016 10.277 10.273" fill-rule="evenodd"/>
  <path d="m442.48 97.613c0 5.6758-4.6016 10.277-10.273 10.277-5.6758 0-10.277-4.6016-10.277-10.277 0-5.6719 4.6016-10.273 10.277-10.273 5.6719 0 10.273 4.6016 10.273 10.273" fill-rule="evenodd"/>
  <path d="m627.43 123.3c0 5.6719-4.5977 10.273-10.273 10.273s-10.277-4.6016-10.277-10.273c0-5.6758 4.6016-10.277 10.277-10.277s10.273 4.6016 10.273 10.277" fill-rule="evenodd"/>
  <path d="m226.7 25.688c0 5.6758-4.5977 10.277-10.273 10.277s-10.273-4.6016-10.273-10.277 4.5977-10.273 10.273-10.273 10.273 4.5977 10.273 10.273" fill-rule="evenodd"/>
  <use x="72.570312" y="637.0625" xlink:href="#aa"/>
  <use x="91.421875" y="637.0625" xlink:href="#c"/>
  <use x="104.089844" y="637.0625" xlink:href="#a"/>
  <use x="121.511719" y="637.0625" xlink:href="#f"/>
  <use x="138.847656" y="637.0625" xlink:href="#b"/>
  <use x="151.125" y="637.0625" xlink:href="#a"/>
  <use x="168.546875" y="637.0625" xlink:href="#l"/>
  <use x="195.878906" y="637.0625" xlink:href="#k"/>
  <use x="214.265625" y="637.0625" xlink:href="#j"/>
  <use x="239.957031" y="637.0625" xlink:href="#i"/>
  <use x="249.511719" y="637.0625" xlink:href="#z"/>
  <use x="271.351563" y="637.0625" xlink:href="#y"/>
  <use x="292.847656" y="637.0625" xlink:href="#x"/>
  <use x="321.699219" y="637.0625" xlink:href="#h"/>
  <use x="343.019531" y="637.0625" xlink:href="#a"/>
  <use x="360.441406" y="637.0625" xlink:href="#w"/>
  <use x="375.734375" y="637.0625" xlink:href="#v"/>
  <use x="384.539063" y="637.0625" xlink:href="#u"/>
  <use x="402.925781" y="637.0625" xlink:href="#e"/>
  <use x="430.15625" y="637.0625" xlink:href="#h"/>
  <use x="451.480469" y="637.0625" xlink:href="#a"/>
  <use x="468.902344" y="637.0625" xlink:href="#t"/>
  <use x="487.289063" y="637.0625" xlink:href="#f"/>
  <use x="504.625" y="637.0625" xlink:href="#c"/>
  <use x="517.292969" y="637.0625" xlink:href="#b"/>
  <use x="529.574219" y="637.0625" xlink:href="#g"/>
  <use x="556.339844" y="637.0625" xlink:href="#a"/>
  <use x="573.761719" y="637.0625" xlink:href="#e"/>
  <use x="592.050781" y="637.0625" xlink:href="#b"/>
  <use x="72.570312" y="662.753906" xlink:href="#s"/>
  <use x="83.746094" y="662.753906" xlink:href="#c"/>
  <use x="96.414063" y="662.753906" xlink:href="#d"/>
  <use x="114.0625" y="662.753906" xlink:href="#g"/>
  <use x="149.769531" y="662.753906" xlink:href="#b"/>
  <use x="162.050781" y="662.753906" xlink:href="#r"/>
  <use x="180.339844" y="662.753906" xlink:href="#a"/>
  <use x="206.703125" y="662.753906" xlink:href="#q"/>
  <use x="228.203125" y="662.753906" xlink:href="#d"/>
  <use x="245.851563" y="662.753906" xlink:href="#p"/>
  <use x="264.136719" y="662.753906" xlink:href="#e"/>
  <use x="291.367188" y="662.753906" xlink:href="#o"/>
  <use x="310.195313" y="662.753906" xlink:href="#c"/>
  <use x="322.863281" y="662.753906" xlink:href="#d"/>
  <use x="340.511719" y="662.753906" xlink:href="#n"/>
  <use x="349.316406" y="662.753906" xlink:href="#a"/>
  <use x="366.738281" y="662.753906" xlink:href="#m"/>
  <use x="381.96875" y="662.753906" xlink:href="#b"/>
 </g>
</svg>
